<svg viewBox="0 0 35 25" fill="none" xmlns="http://www.w3.org/2000/svg">
<path d="M32.4751 10H8.5353L14.242 4.29336C14.4748 4.06139 14.6595 3.78578 14.7857 3.48233C14.9118 3.17887 14.9769 2.85351 14.9772 2.52487C14.9775 2.19624 14.913 1.87077 14.7873 1.56709C14.6617 1.26341 14.4774 0.987491 14.2451 0.755109C14.0127 0.522727 13.7367 0.338448 13.4331 0.212815C13.1294 0.0871832 12.8039 0.0226642 12.4753 0.0229502C12.1466 0.0232361 11.8213 0.0883214 11.5178 0.214482C11.2144 0.340642 10.9388 0.525402 10.7068 0.758188L0.758326 10.7317C0.5259 10.9638 0.341512 11.2394 0.215706 11.5429C0.089901 11.8463 0.0251465 12.1715 0.0251465 12.5C0.0251465 12.8285 0.089901 13.1537 0.215706 13.4572C0.341512 13.7606 0.5259 14.0363 0.758326 14.2684L10.7068 24.2418C10.9388 24.4746 11.2144 24.6594 11.5178 24.7855C11.8213 24.9117 12.1466 24.9768 12.4753 24.9771C12.8039 24.9774 13.1294 24.9128 13.4331 24.7872C13.7367 24.6616 14.0127 24.4773 14.2451 24.2449C14.4774 24.0125 14.6617 23.7366 14.7873 23.4329C14.913 23.1293 14.9775 22.8038 14.9772 22.4752C14.9769 22.1465 14.9118 21.8212 14.7857 21.5177C14.6595 21.2142 14.4748 20.9386 14.242 20.7067L8.5353 15H32.4751C33.1382 15 33.7741 14.7366 34.2429 14.2678C34.7118 13.7989 34.9751 13.1631 34.9751 12.5C34.9751 11.837 34.7118 11.2011 34.2429 10.7322C33.7741 10.2634 33.1382 10 32.4751 10V10Z" fill="#535353"/>
</svg>
