
<svg viewBox="0 0 25 25" fill="none" xmlns="http://www.w3.org/2000/svg">
<path d="M13.7376 19.4444H6.94103C6.20432 19.4444 5.49778 19.1518 4.97685 18.6308C4.45591 18.1099 4.16326 17.4034 4.16326 16.6667C4.16326 15.9299 4.45591 15.2234 4.97685 14.7025C5.49778 14.1815 6.20432 13.8889 6.94103 13.8889H14.2487C14.3565 13.8889 14.4628 13.8638 14.5592 13.8156C14.6557 13.7674 14.7395 13.6974 14.8042 13.6111L22.5126 3.33333C22.5513 3.28174 22.5748 3.2204 22.5806 3.15618C22.5864 3.09195 22.5742 3.02739 22.5453 2.96971C22.5165 2.91204 22.4722 2.86353 22.4173 2.82963C22.3625 2.79573 22.2993 2.77777 22.2348 2.77777H11.1285C11.0207 2.77777 10.9144 2.80287 10.818 2.85109C10.7215 2.8993 10.6377 2.9693 10.573 3.05555L2.4459 13.4222C1.84546 14.2487 1.48512 15.225 1.40467 16.2434C1.32422 17.2618 1.52679 18.2825 1.99001 19.193C2.45322 20.1035 3.15907 20.8683 4.02959 21.4028C4.90011 21.9374 5.90143 22.221 6.92298 22.2222H14.2487C14.3565 22.2222 14.4628 22.1971 14.5592 22.1489C14.6557 22.1007 14.7395 22.0307 14.8042 21.9444L22.5126 11.6667C22.5513 11.6151 22.5748 11.5537 22.5806 11.4895C22.5864 11.4253 22.5742 11.3607 22.5453 11.303C22.5165 11.2454 22.4722 11.1969 22.4173 11.163C22.3625 11.1291 22.2993 11.1111 22.2348 11.1111H19.9876L13.7376 19.4444Z" fill="#535353"/>
</svg>

