<svg viewBox="0 0 25 25" fill="none" xmlns="http://www.w3.org/2000/svg">
<path d="M22.9166 5.55555L12.9639 5.56111L10.6722 3.19999C10.5425 3.06617 10.3871 2.95982 10.2155 2.88728C10.0438 2.81474 9.85926 2.7775 9.67288 2.77777H2.77774C2.40939 2.77777 2.05612 2.9241 1.79565 3.18457C1.53518 3.44504 1.38885 3.79831 1.38885 4.16666V20.1389C1.38885 20.3231 1.46202 20.4997 1.59225 20.6299C1.72249 20.7602 1.89912 20.8333 2.0833 20.8333H22.9166C23.1008 20.8333 23.2774 20.7602 23.4077 20.6299C23.5379 20.4997 23.6111 20.3231 23.6111 20.1389V6.24999C23.6111 6.06582 23.5379 5.88918 23.4077 5.75895C23.2774 5.62871 23.1008 5.55555 22.9166 5.55555ZM2.77774 4.16666H9.67288L12.3722 6.94444H2.77774V4.16666Z" fill="#535353"/>
</svg>
