<svg viewBox="0 0 25 25" fill="none" xmlns="http://www.w3.org/2000/svg">
<path d="M22.9167 4.16666H2.08336C1.89918 4.16666 1.72255 4.23982 1.59231 4.37005C1.46208 4.50029 1.38892 4.67692 1.38892 4.8611V20.1389C1.38892 20.3231 1.46208 20.4997 1.59231 20.6299C1.72255 20.7602 1.89918 20.8333 2.08336 20.8333H22.9167C23.1009 20.8333 23.2775 20.7602 23.4077 20.6299C23.538 20.4997 23.6111 20.3231 23.6111 20.1389V4.8611C23.6111 4.67692 23.538 4.50029 23.4077 4.37005C23.2775 4.23982 23.1009 4.16666 22.9167 4.16666ZM22.2222 17.6201L18.5611 13.9583C18.3007 13.6979 17.9475 13.5517 17.5792 13.5517C17.2109 13.5517 16.8577 13.6979 16.5972 13.9583L14.4639 16.0917L9.21669 10.8437C8.95624 10.5834 8.60303 10.4371 8.23475 10.4371C7.86647 10.4371 7.51326 10.5834 7.2528 10.8437L2.7778 15.3187V5.55555H22.2222V17.6201Z" fill="#6E6E6E"/>
<path d="M18.5417 11.1111C19.5773 11.1111 20.4167 10.2716 20.4167 9.23611C20.4167 8.20058 19.5773 7.36111 18.5417 7.36111C17.5062 7.36111 16.6667 8.20058 16.6667 9.23611C16.6667 10.2716 17.5062 11.1111 18.5417 11.1111Z" fill="#6E6E6E"/>
</svg>
