<svg width="300" height="300" viewBox="0 0 300 300" fill="none" xmlns="http://www.w3.org/2000/svg">
<path d="M190.452 67.469H109.615C107.773 67.4713 106.007 68.222 104.705 69.5565C103.402 70.8909 102.669 72.7001 102.667 74.5873V258.643L101.741 258.932L81.9099 265.154C80.9701 265.447 79.955 265.347 79.0874 264.874C78.2198 264.402 77.5707 263.596 77.2825 262.634L18.2955 65.2434C18.0084 64.2805 18.1063 63.2403 18.5675 62.3514C19.0287 61.4624 19.8156 60.7974 20.7552 60.5026L51.3141 50.9166L139.906 23.1363L170.464 13.5503C170.929 13.4037 171.418 13.3524 171.902 13.3995C172.387 13.4466 172.857 13.5911 173.287 13.8247C173.717 14.0583 174.098 14.3765 174.407 14.761C174.717 15.1455 174.95 15.5887 175.092 16.0654L190.17 66.5199L190.452 67.469Z" fill="#F2F2F2"/>
<path d="M208.092 66.52L189.92 5.71073C189.617 4.69754 189.123 3.7553 188.465 2.93788C187.807 2.12045 186.998 1.44385 186.085 0.946731C185.172 0.449617 184.172 0.141729 183.143 0.0406737C182.113 -0.0603818 181.074 0.0473752 180.085 0.357776L137.121 13.8303L48.5349 41.6154L5.57092 55.0927C3.57504 55.7206 1.90387 57.1341 0.924214 59.0229C-0.055438 60.9117 -0.26353 63.1216 0.345623 65.1675L62.4546 272.988C62.9494 274.64 63.9479 276.085 65.3035 277.113C66.6591 278.14 68.3005 278.696 69.9867 278.697C70.7672 278.698 71.5432 278.578 72.2888 278.341L101.741 269.107L102.667 268.812V267.821L101.741 268.11L72.0156 277.435C70.2539 277.985 68.3511 277.797 66.7246 276.912C65.098 276.027 63.8807 274.517 63.3394 272.713L1.2352 64.8875C0.967037 63.9939 0.873575 63.0548 0.960163 62.1242C1.04675 61.1935 1.31168 60.2894 1.7398 59.4638C2.16792 58.6382 2.75082 57.9072 3.4551 57.3126C4.15939 56.7181 4.97122 56.2718 5.84413 55.9991L48.8081 42.5218L137.395 14.7415L180.359 1.26418C181.021 1.05718 181.709 0.951635 182.402 0.950975C183.887 0.954392 185.333 1.44506 186.526 2.35111C187.72 3.25716 188.599 4.53097 189.035 5.98598L207.124 66.52L207.411 67.4691H208.375L208.092 66.52Z" fill="#3F3D56"/>
<path d="M56.8286 60.6577C55.9358 60.657 55.0667 60.3633 54.3488 59.8195C53.6309 59.2758 53.102 58.5106 52.8397 57.6363L46.8732 37.671C46.7128 37.1347 46.6572 36.5713 46.7094 36.013C46.7617 35.4547 46.9208 34.9124 47.1776 34.417C47.4345 33.9217 47.7841 33.4831 48.2064 33.1262C48.6288 32.7693 49.1156 32.5011 49.6392 32.337L131.138 6.77575C132.195 6.44523 133.337 6.55796 134.314 7.08917C135.29 7.62038 136.021 8.52668 136.345 9.60916L142.312 29.5747C142.634 30.6578 142.524 31.8277 142.005 32.8277C141.487 33.8278 140.602 34.5762 139.546 34.909L58.0466 60.4702C57.652 60.5943 57.2415 60.6575 56.8286 60.6577V60.6577Z" fill="#087F8C"/>
<path d="M88.0834 21.3334C93.2001 21.3334 97.3479 17.0841 97.3479 11.8424C97.3479 6.60061 93.2001 2.35132 88.0834 2.35132C82.9668 2.35132 78.819 6.60061 78.819 11.8424C78.819 17.0841 82.9668 21.3334 88.0834 21.3334Z" fill="#087F8C"/>
<path d="M88.0835 17.8523C91.3235 17.8523 93.95 15.1616 93.95 11.8423C93.95 8.52306 91.3235 5.83228 88.0835 5.83228C84.8435 5.83228 82.2169 8.52306 82.2169 11.8423C82.2169 15.1616 84.8435 17.8523 88.0835 17.8523Z" fill="white"/>
<path d="M279.155 276.272H122.586C121.542 276.271 120.541 275.846 119.803 275.09C119.065 274.333 118.65 273.308 118.648 272.239V80.0447C118.649 78.9753 119.065 77.95 119.803 77.1937C120.541 76.4375 121.542 76.0122 122.586 76.011H279.155C280.199 76.0122 281.2 76.4376 281.938 77.1938C282.676 77.95 283.091 78.9753 283.092 80.0447V272.239C283.091 273.308 282.676 274.333 281.938 275.09C281.2 275.846 280.199 276.271 279.155 276.272V276.272Z" fill="#E6E6E6"/>
<path d="M207.124 66.52H109.615C107.528 66.523 105.527 67.374 104.05 68.8863C102.574 70.3985 101.744 72.4487 101.741 74.5874V268.11L102.667 267.821V74.5874C102.669 72.7002 103.402 70.891 104.705 69.5566C106.007 68.2221 107.773 67.4714 109.615 67.4691H207.411L207.124 66.52ZM292.125 66.52H109.615C107.528 66.523 105.527 67.374 104.05 68.8863C102.574 70.3985 101.744 72.4487 101.741 74.5874V291.933C101.744 294.071 102.574 296.122 104.05 297.634C105.527 299.146 107.528 299.997 109.615 300H292.125C294.213 299.997 296.214 299.146 297.69 297.634C299.166 296.122 299.997 294.071 300 291.933V74.5874C299.997 72.4487 299.166 70.3985 297.69 68.8863C296.214 67.374 294.213 66.523 292.125 66.52V66.52ZM299.074 291.933C299.071 293.82 298.339 295.629 297.036 296.964C295.733 298.298 293.967 299.049 292.125 299.051H109.615C107.773 299.049 106.007 298.298 104.705 296.964C103.402 295.629 102.669 293.82 102.667 291.933V74.5874C102.669 72.7002 103.402 70.891 104.705 69.5566C106.007 68.2221 107.773 67.4714 109.615 67.4691H292.125C293.967 67.4714 295.733 68.2221 297.036 69.5566C298.339 70.891 299.071 72.7002 299.074 74.5874V291.933Z" fill="#3F3D56"/>
<path d="M243.487 87.4003H158.254C157.149 87.399 156.089 86.9487 155.307 86.148C154.526 85.3473 154.086 84.2617 154.085 83.1293V62.249C154.086 61.1167 154.526 60.0311 155.307 59.2304C156.089 58.4297 157.149 57.9793 158.254 57.978H243.487C244.592 57.9793 245.652 58.4297 246.433 59.2304C247.215 60.0311 247.655 61.1167 247.656 62.249V83.1293C247.655 84.2617 247.215 85.3473 246.433 86.148C245.652 86.9487 244.592 87.399 243.487 87.4003V87.4003Z" fill="#087F8C"/>
<path d="M200.87 59.4016C205.987 59.4016 210.135 55.1523 210.135 49.9105C210.135 44.6687 205.987 40.4194 200.87 40.4194C195.754 40.4194 191.606 44.6687 191.606 49.9105C191.606 55.1523 195.754 59.4016 200.87 59.4016Z" fill="#087F8C"/>
<path d="M200.87 55.6915C203.987 55.6915 206.513 53.1033 206.513 49.9106C206.513 46.7179 203.987 44.1296 200.87 44.1296C197.754 44.1296 195.227 46.7179 195.227 49.9106C195.227 53.1033 197.754 55.6915 200.87 55.6915Z" fill="white"/>
</svg>
