
<svg viewBox="0 0 25 25" fill="none" xmlns="http://www.w3.org/2000/svg">
<path d="M16.6666 22.2222V17.3611C16.6666 17.1769 16.7398 17.0003 16.87 16.8701C17.0003 16.7398 17.1769 16.6667 17.3611 16.6667H22.2222C22.2333 16.7723 22.2234 16.879 22.1931 16.9808C22.1629 17.0826 22.1128 17.1774 22.0458 17.2597L17.2597 22.0458C17.1773 22.1128 17.0825 22.1629 16.9807 22.1932C16.879 22.2235 16.7722 22.2333 16.6666 22.2222Z" fill="#535353"/>
<path d="M21.5278 2.77778H3.47228C3.2881 2.77778 3.11146 2.85094 2.98123 2.98118C2.851 3.11141 2.77783 3.28804 2.77783 3.47222V21.5278C2.77783 21.712 2.851 21.8886 2.98123 22.0188C3.11146 22.1491 3.2881 22.2222 3.47228 22.2222H15.2778V16.6667C15.2778 16.2983 15.4242 15.945 15.6846 15.6846C15.9451 15.4241 16.2984 15.2778 16.6667 15.2778H22.2223V3.47222C22.2223 3.28804 22.1491 3.11141 22.0189 2.98118C21.8886 2.85094 21.712 2.77778 21.5278 2.77778ZM12.5001 16.6667H6.9445V15.2778H12.5001V16.6667ZM18.0556 12.5H6.9445V11.1111H18.0556V12.5ZM18.0556 8.33333H6.9445V6.94445H18.0556V8.33333Z" fill="#535353"/>
</svg>
